<svg width="704" height="477" viewBox="0 0 704 477" fill="none" xmlns="http://www.w3.org/2000/svg">
<path d="M54.7739 120.938H223.309L299.15 196.877H435.383L481.027 149.064H593.384" stroke="#BBFFFF" stroke-width="2" stroke-linecap="round" stroke-linejoin="round"/>
<path d="M131.317 277.736H242.27L431.169 88.5942H690.292" stroke="#BBFFFF" stroke-width="2" stroke-linecap="round" stroke-linejoin="round"/>
<ellipse cx="264.038" cy="33.7503" rx="33.707" ry="33.7503" fill="url(#paint0_linear_13_5697)"/>
<ellipse cx="112.357" cy="120.939" rx="4.21338" ry="4.21878" fill="#BBFFFF"/>
<path d="M95.5033 119.532L112.357 116.72V125.157L95.5033 122.345V119.532Z" fill="url(#paint1_linear_13_5697)"/>
<path d="M210.669 133.595L254.207 177.189" stroke="#BBFFFF" stroke-width="2" stroke-linecap="round" stroke-linejoin="round"/>
<path d="M258.421 181.408L269.656 192.658" stroke="#BBFFFF" stroke-width="2" stroke-linecap="round" stroke-linejoin="round"/>
<path d="M476.112 279.846L519.65 323.44" stroke="#BBFFFF" stroke-width="2" stroke-linecap="round" stroke-linejoin="round"/>
<path d="M523.863 327.659L535.099 338.909" stroke="#BBFFFF" stroke-width="2" stroke-linecap="round" stroke-linejoin="round"/>
<path d="M492.965 167.233H617.26" stroke="#BBFFFF" stroke-width="2" stroke-linecap="round" stroke-linejoin="round"/>
<path d="M623.58 167.233H639.47" stroke="#BBFFFF" stroke-width="2" stroke-linecap="round" stroke-linejoin="round"/>
<path d="M646.052 167.233H679.056" stroke="#BBFFFF" stroke-width="2" stroke-linecap="round" stroke-linejoin="round"/>
<path d="M94.8011 259.104H166.429" stroke="#BBFFFF" stroke-width="2" stroke-linecap="round" stroke-linejoin="round"/>
<path d="M172.749 259.104H188.638" stroke="#BBFFFF" stroke-width="2" stroke-linecap="round" stroke-linejoin="round"/>
<path d="M195.22 259.104H228.225" stroke="#BBFFFF" stroke-width="2" stroke-linecap="round" stroke-linejoin="round"/>
<ellipse cx="542.122" cy="149.064" rx="4.21338" ry="4.21878" fill="#BBFFFF"/>
<path d="M525.268 147.657L542.121 144.845V153.282L525.268 150.47V147.657Z" fill="url(#paint2_linear_13_5697)"/>
<ellipse cx="644.647" cy="88.5943" rx="4.21338" ry="4.21878" fill="#BBFFFF"/>
<path d="M627.793 87.188L644.647 84.3755V92.8131L627.793 90.0005V87.188Z" fill="url(#paint3_linear_13_5697)"/>
<path d="M74.4363 361.409H233.14L339.177 255.236H478.218L536.504 313.596H653.776" stroke="#BBFFFF" stroke-width="2" stroke-linecap="round" stroke-linejoin="round"/>
<ellipse cx="200.838" cy="361.409" rx="4.21338" ry="4.21878" fill="#BBFFFF"/>
<path d="M183.984 360.003L200.838 357.19V365.628L183.984 362.815V360.003Z" fill="url(#paint4_linear_13_5697)"/>
<path d="M238.185 165.448C238.185 165.448 214.575 214.775 237.621 293.651C237.793 294.24 238.001 294.816 238.185 295.393C255.665 347.776 440.975 333.432 473.055 315.627C473.055 315.627 508.139 236.875 476.108 162.699C476.12 162.699 346.157 104.917 238.185 165.448Z" fill="#73FDAA"/>
<g style="mix-blend-mode:soft-light">
<mask id="mask0_13_5697" style="mask-type:alpha" maskUnits="userSpaceOnUse" x="227" y="137" width="263" height="195">
<path d="M238.185 165.448C238.185 165.448 214.575 214.775 237.621 293.651C237.793 294.24 238.001 294.816 238.185 295.393C255.665 347.776 440.975 333.432 473.055 315.627C473.055 315.627 508.139 236.875 476.108 162.699C476.12 162.699 346.157 104.917 238.185 165.448Z" fill="#315EFB"/>
</mask>
<g mask="url(#mask0_13_5697)">
<g style="mix-blend-mode:soft-light">
<path d="M229.008 190.444C229.008 190.444 221.918 230.402 237.451 297.587C237.451 297.587 244.042 332.966 342.908 338.674C429.844 343.696 474.474 319.43 474.474 319.43C474.474 319.43 491.67 289.855 493.612 275.426C493.612 275.426 386.673 318.496 281.216 282.996C221.295 262.824 229.008 190.444 229.008 190.444Z" fill="url(#paint5_linear_13_5697)"/>
</g>
</g>
</g>
<path d="M486.559 267.464L487.679 262.245C487.679 262.245 465.64 266.464 445.882 264.879C426.124 263.294 420.654 256.539 417.675 247.992C417.675 247.992 416.818 267.037 444.037 269.719C471.611 272.451 486.559 267.464 486.559 267.464Z" fill="white"/>
<path d="M491.497 262.495C491.497 262.495 497.626 245.316 493.201 218.849C493.201 218.849 476.272 209.29 445.013 212.088C413.754 214.885 411.143 237.206 417.089 253.746C423.671 272.005 465.178 268.986 491.497 262.495Z" fill="#010010"/>
<circle cx="439.03" cy="240.873" r="16.6119" fill="white"/>
<path d="M454.06 240.873C454.06 249.173 447.331 255.903 439.03 255.903C430.729 255.903 424 249.173 424 240.873C424 240.873 431.91 244.037 442.194 237.708C454.06 230.407 454.06 240.873 454.06 240.873Z" fill="url(#paint6_linear_13_5697)"/>
<path fill-rule="evenodd" clip-rule="evenodd" d="M433.875 238.392C435.583 238.392 436.968 236.997 436.968 235.276C436.968 233.555 435.583 232.16 433.875 232.16C432.166 232.16 430.782 233.555 430.782 235.276C430.782 236.997 432.166 238.392 433.875 238.392Z" fill="#73FDAA"/>
<path fill-rule="evenodd" clip-rule="evenodd" d="M444.184 248.779C445.893 248.779 447.277 247.384 447.277 245.663C447.277 243.942 445.893 242.547 444.184 242.547C442.476 242.547 441.092 243.942 441.092 245.663C441.092 247.384 442.476 248.779 444.184 248.779Z" fill="#73FDAA"/>
<path fill-rule="evenodd" clip-rule="evenodd" d="M444.106 233.199C442.354 233.199 440.934 234.63 440.934 236.395C440.934 238.16 442.354 239.591 444.106 239.591C445.858 239.591 447.278 238.16 447.278 236.395C447.278 234.63 445.858 233.199 444.106 233.199Z" fill="#73FDAA"/>
<path fill-rule="evenodd" clip-rule="evenodd" d="M433.955 243.426C432.203 243.426 430.783 244.857 430.783 246.622C430.783 248.387 432.203 249.818 433.955 249.818C435.707 249.818 437.127 248.387 437.127 246.622C437.127 244.857 435.707 243.426 433.955 243.426Z" fill="#73FDAA"/>
<path d="M265.777 52.5408C274.612 17.1314 343.788 3.00982 377.271 0.375195C432.492 -3.96992 428.285 30.4099 377.271 52.5408C360.651 59.7511 349.924 91.5333 315.213 100.491C301.767 103.961 254.733 96.8025 265.777 52.5408Z" fill="url(#paint7_linear_13_5697)"/>
<circle cx="4.21608" cy="4.21608" r="4.21608" transform="matrix(0.706653 0.70756 -0.706653 0.70756 510.671 281.764)" fill="#BBFFFF"/>
<path d="M499.747 274.804L513.65 284.747L507.692 290.714L497.761 276.792L499.747 274.804Z" fill="url(#paint8_linear_13_5697)"/>
<path d="M2.28123 294.048C-5.90206 275.007 9.8875 267.271 18.8052 265.783C65.2294 265.783 99.0646 294.048 122.67 299.999C146.276 305.95 178.537 304.462 221.027 327.52C263.517 350.579 272.173 371.406 294.991 392.977C317.81 414.548 336.695 401.159 368.169 403.39C399.643 405.622 410.659 427.937 368.169 445.044C325.679 462.152 305.22 445.788 272.173 445.044C239.125 444.301 195.848 407.853 178.537 383.307C161.226 358.761 134.473 337.934 99.0646 334.215C63.6561 330.496 12.5103 317.851 2.28123 294.048Z" fill="url(#paint9_linear_13_5697)"/>
<path d="M389.877 390.77L475.142 450.026L337.304 477L389.877 390.77Z" fill="url(#paint10_linear_13_5697)"/>
<path fill-rule="evenodd" clip-rule="evenodd" d="M620.664 367.208C621.962 360.899 628.175 356.586 634.543 357.576C640.91 358.565 645.02 364.482 643.723 370.791L643.37 372.506C642.073 378.815 635.859 383.128 629.491 382.139C623.124 381.15 619.014 375.233 620.311 368.924L620.664 367.208ZM630.705 368.517L625.004 367.627L623.874 369.819L629.575 370.709L630.705 368.517ZM639.112 366.025C639.594 366.1 640.184 366.436 640.362 367.126C640.54 367.815 640.386 368.131 639.984 368.957L639.984 368.958C639.582 369.785 638.32 372.256 637.832 373.126C637.344 373.996 636.633 374.679 635.835 375.01L635.764 375.039C635.019 375.348 634.705 375.478 633.747 375.33L623.625 373.761L624.844 371.417L634.363 372.892L636.798 368.2L627.354 366.737L628.574 364.392L639.112 366.025Z" fill="#73FDAA"/>
<path fill-rule="evenodd" clip-rule="evenodd" d="M549.895 397.405C555.845 388.398 568.038 385.864 577.128 391.744C586.219 397.625 588.765 409.694 582.815 418.701L581.6 420.54C575.651 429.547 563.458 432.081 554.368 426.2C545.277 420.32 542.731 408.251 548.681 399.244L549.895 397.405ZM556.263 408.617L558.214 408.988L553.379 413.574L567.263 422.562L570.867 419.137L562.54 413.747L566.051 410.405L568.015 410.756L570.799 408.124L568.853 407.785L575.11 401.846L569.58 398.266L561.052 406.334L559.062 405.981L556.263 408.618L556.263 408.617Z" fill="#73FDAA"/>
<path d="M579.64 240.089C581.194 227.2 588.833 222.668 592.458 222.013C608.382 226.729 627.026 213.369 641.008 217.298C654.991 221.228 665.866 240.089 672.469 246.376C679.072 252.663 712.863 258.95 701.211 278.598C689.559 298.245 671.692 278.598 644.115 273.096C616.539 267.595 618.481 285.278 606.052 290.779C593.623 296.28 583.913 287.636 579.64 278.598C575.368 269.56 577.698 256.2 579.64 240.089Z" fill="url(#paint11_linear_13_5697)"/>
<path fill-rule="evenodd" clip-rule="evenodd" d="M188.103 448.97C175.745 436.234 176.038 415.877 188.758 403.502C201.478 391.128 221.809 391.422 234.167 404.158C246.525 416.894 246.233 437.251 233.512 449.626C220.792 462 200.461 461.706 188.103 448.97Z" fill="white"/>
<path fill-rule="evenodd" clip-rule="evenodd" d="M185.343 448.937C173.006 436.232 173.207 415.826 185.901 403.47C198.594 391.113 218.972 391.486 231.31 404.191C243.647 416.896 243.446 437.302 230.752 449.658C218.059 462.015 197.681 461.642 185.343 448.937ZM223.969 442.69L200.371 438.534L216.11 434.589L216.111 434.591L220.508 418.946L223.969 442.69ZM192.681 410.444L218.679 417.074L214.189 432.612L198.547 436.657L192.681 410.444Z" fill="#73FDAA"/>
<path fill-rule="evenodd" clip-rule="evenodd" d="M591.704 199.941C598.142 192.037 609.766 190.854 617.661 197.303C625.556 203.752 626.734 215.39 620.295 223.294C613.857 231.197 602.233 232.38 594.338 225.931C586.443 219.483 585.265 207.844 591.704 199.941Z" fill="white"/>
<path fill-rule="evenodd" clip-rule="evenodd" d="M589.408 198.281C595.783 190.515 607.263 189.389 615.049 195.766C622.836 202.142 623.98 213.606 617.605 221.371L616.973 222.141C610.598 229.907 599.118 231.033 591.332 224.656C583.545 218.28 582.401 206.816 588.776 199.051L589.408 198.281ZM594.966 220.266L595.981 206.458L599.143 215.182L599.142 215.183L608.339 216.569L594.966 220.266ZM611.433 200.142L609.149 215.466L600.04 214.023L596.838 205.382L611.433 200.142Z" fill="#73FDAA"/>
<path d="M556.868 203.908H568.104" stroke="#28BC00" stroke-width="2" stroke-linecap="round" stroke-linejoin="round"/>
<path d="M574.424 215.158H544.93" stroke="#28BC00" stroke-width="2" stroke-linecap="round" stroke-linejoin="round"/>
<path d="M145.362 202.501H164.322" stroke="#28BC00" stroke-width="2" stroke-linecap="round" stroke-linejoin="round"/>
<path d="M179.771 213.752H150.277" stroke="#28BC00" stroke-width="2" stroke-linecap="round" stroke-linejoin="round"/>
<path fill-rule="evenodd" clip-rule="evenodd" d="M126.56 77.4295C121.818 69.5821 124.411 59.4565 132.351 54.8134C140.291 50.1704 150.572 52.768 155.313 60.6155L156.462 62.516C161.203 70.3635 158.61 80.489 150.67 85.1321C142.73 89.7752 132.449 87.1775 127.708 79.33L126.56 77.4295ZM148.587 70.8364L142.91 74.1736C143.052 73.3447 143.168 72.5097 143.258 71.6701C143.51 69.5575 143.749 67.4424 143.975 65.325C143.994 65.1521 144.025 64.9726 144.057 64.7907C144.147 64.2763 144.238 63.7477 144.071 63.3237C143.777 62.5528 143.314 61.8361 142.839 61.0986C142.643 60.7973 142.451 60.493 142.264 60.1857L138.742 62.2566L137.171 59.6434L134.348 61.3031L135.958 63.9824L132.726 65.8825L134.65 69.0833L140.094 65.8828C140.041 66.2834 139.986 66.6585 139.934 67.0225C139.868 67.4857 139.804 67.9305 139.746 68.3863C139.494 70.499 139.255 72.6141 139.03 74.7316C139.016 74.9199 138.986 75.1193 138.955 75.3209C138.879 75.8079 138.802 76.3097 138.963 76.7159C139.258 77.4882 139.721 78.2067 140.19 78.9342C140.379 79.227 140.568 79.5207 140.749 79.8204L144.242 77.7665L145.833 80.4135L148.772 78.6855C148.476 78.2543 148.183 77.8211 147.893 77.3858C147.607 76.9584 147.32 76.5311 147.017 76.0914L150.51 74.038L148.586 70.8367L148.587 70.8364Z" fill="#73FDAA"/>
<path d="M158.002 92.8135L165.024 99.8448" stroke="#28BC00" stroke-width="2" stroke-linecap="round" stroke-linejoin="round"/>
<path d="M511.223 73.8289C511.223 52.4982 528.515 35.1567 549.846 35.1567C571.177 35.1567 588.469 52.4982 588.469 73.8289C588.469 95.1596 571.177 112.501 549.846 112.501C528.515 112.501 511.223 95.1596 511.223 73.8289Z" fill="white"/>
<path fill-rule="evenodd" clip-rule="evenodd" d="M548.442 39.375C528.662 39.375 512.628 55.4553 512.628 75.2347C512.628 95.014 528.662 111.094 548.442 111.094C568.221 111.094 584.255 95.014 584.255 75.2347C584.255 55.4553 568.221 39.375 548.442 39.375ZM556.777 61.8887C561.662 63.5735 565.235 66.0992 564.533 70.7973C564.025 74.2366 562.121 75.9016 559.593 76.4852C563.064 78.2948 564.831 81.0698 563.148 85.8805C561.06 91.8552 556.099 92.3595 549.501 91.1094L547.9 97.5343L544.031 96.5688L545.611 90.23C544.609 89.9806 543.584 89.7158 542.528 89.4289L540.942 95.7976L537.078 94.8322L538.679 88.3951C538.321 88.3033 537.961 88.2092 537.598 88.1145L537.588 88.1119C537.038 87.9684 536.483 87.8233 535.921 87.6823L530.886 86.4255L532.807 81.9911C532.807 81.9911 535.657 82.7502 535.619 82.6939C536.714 82.9654 537.2 82.2504 537.392 81.7737L539.922 71.6172C540.017 71.64 540.11 71.6633 540.2 71.6859L540.331 71.7187C540.176 71.6569 540.037 71.6172 539.929 71.5896L541.734 64.3393C541.781 63.5162 541.498 62.4779 539.931 62.0862C539.991 62.0454 537.121 61.3867 537.121 61.3867L538.15 57.249L543.486 58.583L543.481 58.6028C544.283 58.8026 545.11 58.9923 545.952 59.1843L547.538 52.8223L551.404 53.7877L549.851 60.0251C550.889 60.2623 551.933 60.5018 552.95 60.7555L554.493 54.559L558.362 55.5244L556.777 61.8887ZM555.693 83.2093C554.596 87.6229 547.697 85.7982 544.54 84.9633L544.539 84.9632C544.255 84.8881 544.002 84.821 543.785 84.7672L545.91 76.2393C546.174 76.3051 546.496 76.3775 546.861 76.4595C550.126 77.1931 556.817 78.6965 555.693 83.2093ZM547.517 72.5019C550.149 73.2052 555.89 74.7393 556.89 70.7279C557.911 66.6248 552.331 65.3879 549.606 64.7838C549.299 64.7159 549.029 64.6559 548.808 64.6008L546.882 72.3355C547.064 72.3809 547.277 72.4379 547.517 72.5019Z" fill="#73FDAA"/>
<path fill-rule="evenodd" clip-rule="evenodd" d="M99.2433 191.719C90.1968 199.744 89.3631 213.597 97.3676 222.644C105.372 231.691 119.206 232.532 128.252 224.507C137.299 216.482 138.132 202.63 130.128 193.583C122.123 184.535 108.29 183.694 99.2433 191.719ZM112.162 198.627C115.077 197.415 117.732 197.12 119.311 199.553C120.47 201.332 120.272 202.866 119.352 204.159C121.671 203.578 123.601 204.13 124.777 207.013C126.239 210.592 124.174 212.836 120.652 214.942L122.518 218.53L120.358 219.658L118.517 216.118C117.958 216.411 117.382 216.706 116.783 217.003L118.634 220.559L116.476 221.686L114.605 218.093C114.512 218.14 114.419 218.188 114.326 218.236C114.216 218.292 114.106 218.348 113.995 218.404L113.992 218.406L113.99 218.407C113.681 218.564 113.369 218.723 113.055 218.886L110.245 220.355L109.33 217.547C109.33 217.547 110.94 216.738 110.9 216.727C111.511 216.407 111.444 215.883 111.339 215.587L108.388 209.916C108.421 209.899 108.453 209.882 108.485 209.865C108.505 209.855 108.524 209.845 108.543 209.835L108.543 209.835L108.616 209.797C108.521 209.831 108.441 209.87 108.38 209.901L106.274 205.853C105.962 205.457 105.413 205.097 104.538 205.554C104.549 205.511 102.97 206.375 102.97 206.375L101.768 204.065L104.747 202.51L104.753 202.52C105.201 202.286 105.655 202.038 106.118 201.784L104.27 198.231L106.429 197.103L108.241 200.586C108.811 200.273 109.386 199.959 109.954 199.662L108.153 196.202L110.313 195.074L112.162 198.627ZM120.277 208.849C121.581 211.324 117.701 213.261 115.926 214.147C115.766 214.227 115.623 214.298 115.503 214.36L112.986 209.575C113.133 209.499 113.309 209.403 113.508 209.293C115.291 208.317 118.945 206.316 120.277 208.849ZM112.252 207.235C113.734 206.5 116.968 204.896 115.785 202.646C114.574 200.344 111.535 202.02 110.05 202.838C109.883 202.93 109.736 203.011 109.613 203.075L111.895 207.414C111.997 207.362 112.117 207.302 112.252 207.235Z" fill="#73FDAA"/>
<path d="M234.545 390.237L256.314 368.44" stroke="#28BC00" stroke-width="2" stroke-linecap="round" stroke-linejoin="round"/>
<path d="M248.589 392.347L278.785 362.112" stroke="#28BC00" stroke-width="2" stroke-linecap="round" stroke-linejoin="round"/>
<path d="M495.774 125.86L511.925 109.688" stroke="#28BC00" stroke-width="2" stroke-linecap="round" stroke-linejoin="round"/>
<path d="M523.161 113.907L496.477 140.626" stroke="#28BC00" stroke-width="2" stroke-linecap="round" stroke-linejoin="round"/>
<path d="M161.513 83.6724L176.962 99.1412" stroke="#28BC00" stroke-width="2" stroke-linecap="round" stroke-linejoin="round"/>
<path d="M535.099 369.847L544.93 379.691" stroke="#28BC00" stroke-width="2" stroke-linecap="round" stroke-linejoin="round"/>
<path d="M516.841 366.331L540.717 390.237" stroke="#28BC00" stroke-width="2" stroke-linecap="round" stroke-linejoin="round"/>
<path d="M615.856 345.94L621.474 351.565" stroke="#28BC00" stroke-width="2" stroke-linecap="round" stroke-linejoin="round"/>
<path d="M601.811 344.534L611.642 354.378" stroke="#28BC00" stroke-width="2" stroke-linecap="round" stroke-linejoin="round"/>
<defs>
<linearGradient id="paint0_linear_13_5697" x1="304.541" y1="94.4463" x2="230.205" y2="-9.75376" gradientUnits="userSpaceOnUse">
<stop stop-color="#28BC00"/>
<stop offset="1" stop-color="#28BC00" stop-opacity="0"/>
</linearGradient>
<linearGradient id="paint1_linear_13_5697" x1="104.632" y1="120.939" x2="90.5877" y2="120.939" gradientUnits="userSpaceOnUse">
<stop stop-color="#73FDAA" stop-opacity="0.89"/>
<stop offset="1" stop-color="#EEEEFF" stop-opacity="0"/>
</linearGradient>
<linearGradient id="paint2_linear_13_5697" x1="534.397" y1="149.064" x2="520.352" y2="149.064" gradientUnits="userSpaceOnUse">
<stop stop-color="#73FDAA" stop-opacity="0.89"/>
<stop offset="1" stop-color="#EEEEFF" stop-opacity="0"/>
</linearGradient>
<linearGradient id="paint3_linear_13_5697" x1="636.922" y1="88.5943" x2="622.878" y2="88.5943" gradientUnits="userSpaceOnUse">
<stop stop-color="#73FDAA" stop-opacity="0.89"/>
<stop offset="1" stop-color="#EEEEFF" stop-opacity="0"/>
</linearGradient>
<linearGradient id="paint4_linear_13_5697" x1="193.113" y1="361.409" x2="179.069" y2="361.409" gradientUnits="userSpaceOnUse">
<stop stop-color="#73FDAA" stop-opacity="0.89"/>
<stop offset="1" stop-color="#EEEEFF" stop-opacity="0"/>
</linearGradient>
<linearGradient id="paint5_linear_13_5697" x1="504.674" y1="312.223" x2="153.571" y2="273.092" gradientUnits="userSpaceOnUse">
<stop/>
<stop offset="1" stop-opacity="0"/>
</linearGradient>
<linearGradient id="paint6_linear_13_5697" x1="455.305" y1="252.1" x2="415.601" y2="248.545" gradientUnits="userSpaceOnUse">
<stop stop-color="#DADAFF"/>
<stop offset="1" stop-color="#EEEEFF" stop-opacity="0"/>
</linearGradient>
<linearGradient id="paint7_linear_13_5697" x1="423.465" y1="82.7273" x2="221.507" y2="63.83" gradientUnits="userSpaceOnUse">
<stop stop-color="#DADAFF"/>
<stop offset="1" stop-color="#EEEEFF" stop-opacity="0"/>
</linearGradient>
<linearGradient id="paint8_linear_13_5697" x1="505.209" y1="282.262" x2="495.265" y2="272.331" gradientUnits="userSpaceOnUse">
<stop stop-color="#73FDAA" stop-opacity="0.89"/>
<stop offset="1" stop-color="#EEEEFF" stop-opacity="0"/>
</linearGradient>
<linearGradient id="paint9_linear_13_5697" x1="412.469" y1="418.599" x2="-105.946" y2="350.627" gradientUnits="userSpaceOnUse">
<stop stop-color="#DADAFF"/>
<stop offset="1" stop-color="#EEEEFF" stop-opacity="0"/>
</linearGradient>
<linearGradient id="paint10_linear_13_5697" x1="494.736" y1="476.507" x2="409.232" y2="338.489" gradientUnits="userSpaceOnUse">
<stop stop-color="#28BC00"/>
<stop offset="1" stop-color="#28BC00" stop-opacity="0"/>
</linearGradient>
<linearGradient id="paint11_linear_13_5697" x1="708.872" y1="278.61" x2="542.345" y2="261.447" gradientUnits="userSpaceOnUse">
<stop stop-color="#DADAFF"/>
<stop offset="1" stop-color="#EEEEFF" stop-opacity="0"/>
</linearGradient>
</defs>
</svg>
